#!OML:ASF X:\für Bonn\!DataBase\2005_08_12_Daniel\c3d\Daniel.ASF
:FULLY-SPECIFIED
:DEGREES
137
root -20.8439 16.5242 -20.4027 -4.4326 44.0244 -720.011
lowerback 42.9082 1.44733 -3.48376
upperback 10.9119 0.585159 -4.50191
thorax -8.029 0.719033 -3.32438
lowerneck -5.71601 -1.71445 -7.79872
upperneck -4.35495 -1.7549 3.83344
head -0.282706 -0.746575 2.54136
rclavicle -3.57812e-014 -5.56597e-015
rhumerus -27.1367 7.22099 -92.4668
rradius 46.8754
rwrist 1.30245
rhand -26.1266 24.4106
rfingers 7.12502
rthumb 0.423471 -5.56875
lclavicle -3.57812e-014 -5.56597e-015
lhumerus -6.85642 22.6507 86.8144
lradius 30.0882
lwrist -19.6306
lhand -16.9609 -6.8571
lfingers 7.12502
lthumb 9.2731 22.919
rfemur -23.1592 -3.36185 17.0395
rtibia 73.6237
rfoot -15.2376 13.6005
rtoes -11.9076
lfemur -25.264 -5.85987 -23.6983
ltibia 63.1836
lfoot -31.3798 -4.07065
ltoes -4.20559
138
root -20.7764 16.522 -20.3483 -4.60733 43.995 -719.994
lowerback 42.9164 1.35096 -3.51988
upperback 10.9228 0.458041 -4.45158
thorax -8.02264 0.657809 -3.19843
lowerneck -5.66789 -1.71956 -7.90743
upperneck -4.38521 -1.75826 3.93235
head -0.298258 -0.74681 2.59539
rclavicle -2.78299e-014 2.3059e-014
rhumerus -27.3624 7.00445 -92.4173
rradius 46.4437
rwrist 1.57038
rhand -26.336 24.3171
rfingers 7.12502
rthumb 0.221225 -5.66257
lclavicle -2.78299e-014 2.3059e-014
lhumerus -6.44835 22.5436 87.1273
lradius 30.163
lwrist -19.6983
lhand -16.9668 -6.96838
lfingers 7.12502
lthumb 9.2674 22.8079
rfemur -24.139 -3.30233 17.2502
rtibia 73.1369
rfoot -15.979 13.4887
rtoes -11.8394
lfemur -24.6404 -5.64976 -23.7835
ltibia 63.0932
lfoot -31.6856 -4.22066
ltoes -4.14572
139
root -20.7089 16.5218 -20.2927 -4.79828 43.9574 -720
lowerback 42.9026 1.25726 -3.53534
upperback 10.9473 0.344394 -4.40917
thorax -7.9943 0.603193 -3.09649
lowerneck -5.63762 -1.73626 -7.97155
upperneck -4.43002 -1.77808 4.00951
head -0.315007 -0.755484 2.63347
rclavicle -4.77083e-015 4.77083e-015
rhumerus -27.5684 6.72103 -92.3837
rradius 46.0196
rwrist 1.87774
rhand -26.5449 24.1428
rfingers 7.12502
rthumb 0.0195062 -5.83693
lclavicle -4.77083e-015 4.77083e-015
lhumerus -6.04024 22.3751 87.4104
lradius 30.2284
lwrist -19.6978
lhand -16.96 -7.08798
lfingers 7.12502
lthumb 9.27396 22.6881
rfemur -25.0859 -3.18352 17.4969
rtibia 72.5933
rfoot -16.7014 13.2163
rtoes -11.8565
lfemur -24.0047 -5.41946 -23.8375
ltibia 62.9888
lfoot -31.9618 -4.37132
ltoes -4.02075
140
root -20.6406 16.5222 -20.2365 -4.97301 43.9281 -719.983
lowerback 42.8854 1.15098 -3.55054
upperback 10.9652 0.214514 -4.37052
thorax -7.97289 0.540955 -2.99215
lowerneck -5.61082 -1.74011 -8.01593
upperneck -4.45515 -1.78222 4.06352
head -0.326333 -0.756931 2.66029
rclavicle -1.03368e-014 1.19271e-014
rhumerus -27.8254 6.5039 -92.3488
rradius 45.6584
rwrist 2.1108
rhand -26.7639 23.9324
rfingers 7.12502
rthumb -0.192087 -6.04728
lclavicle -1.03368e-014 1.19271e-014
lhumerus -5.66403 22.2418 87.7028
lradius 30.3089
lwrist -19.7093
lhand -17.0237 -7.13052
lfingers 7.12502
lthumb 9.21249 22.6482
rfemur -26.0207 -3.02529 17.7024
rtibia 72.0009
rfoot -17.3532 12.9926
rtoes -11.8903
lfemur -23.3491 -5.20255 -23.9075
ltibia 62.8615
lfoot -32.2311 -4.54732
ltoes -3.91115
141
root -20.572 16.5253 -20.1791 -5.14952 43.9108 -719.968
lowerback 42.8636 1.03368 -3.56702
upperback 10.9911 0.0718072 -4.33373
thorax -7.94121 0.472913 -2.88369
lowerneck -5.64963 -1.74589 -8.03687
upperneck -4.45283 -1.78523 4.09963
head -0.318117 -0.757929 2.67609
rclavicle 2.3059e-014 4.37326e-014
rhumerus -28.0951 6.30238 -92.3155
rradius 45.3388
rwrist 2.35445
rhand -26.925 23.6766
rfingers 7.12502
rthumb -0.347628 -6.30288
lclavicle 2.3059e-014 4.37326e-014
lhumerus -5.28605 22.1087 87.968
lradius 30.3808
lwrist -19.6887
lhand -17.0644 -7.1356
lfingers 7.12502
lthumb 9.17319 22.6449
rfemur -26.9108 -2.79264 17.9029
rtibia 71.3115
rfoot -17.9511 12.7695
rtoes -11.9048
lfemur -22.674 -4.98347 -23.9693
ltibia 62.7016
lfoot -32.4573 -4.73301
ltoes -3.75171
142
root -20.5025 16.5284 -20.1197 -5.33065 43.8866 -719.976
lowerback 42.7943 0.918012 -3.55687
upperback 11.0284 -0.0548252 -4.29675
thorax -7.88308 0.411943 -2.79443
lowerneck -5.65889 -1.75979 -8.0386
upperneck -4.47388 -1.80205 4.15122
head -0.321515 -0.766068 2.6936
rclavicle -4.37326e-014 -2.06736e-014
rhumerus -28.4081 6.09523 -92.2746
rradius 45.1003
rwrist 2.54235
rhand -27.0907 23.4858
rfingers 7.12502
rthumb -0.507644 -6.49334
lclavicle -4.37326e-014 -2.06736e-014
lhumerus -4.88959 22.0184 88.2423
lradius 30.4263
lwrist -19.7511
lhand -17.1432 -7.16695
lfingers 7.12502
lthumb 9.09712 22.6169
rfemur -27.7656 -2.52611 18.1195
rtibia 70.5336
rfoot -18.4398 12.54
rtoes -11.8502
lfemur -22.0025 -4.75051 -24.0077
ltibia 62.5285
lfoot -32.6658 -4.89175
ltoes -3.6286
143
root -20.4315 16.5332 -20.0585 -5.49603 43.8564 -719.958
lowerback 42.7154 0.815017 -3.56404
upperback 11.0656 -0.172325 -4.25397
thorax -7.82119 0.354743 -2.69394
lowerneck -5.66966 -1.77945 -8.06708
upperneck -4.49641 -1.82504 4.19768
head -0.324543 -0.776822 2.71427
rclavicle 4.29375e-014 8.74653e-015
rhumerus -28.7631 5.98244 -92.2301
rradius 44.9187
rwrist 2.61066
rhand -27.2673 23.207
rfingers 7.12502
rthumb -0.678293 -6.77165
lclavicle 4.29375e-014 8.74653e-015
lhumerus -4.52291 21.9184 88.5174
lradius 30.4857
lwrist -19.7699
lhand -17.2097 -7.16461
lfingers 7.12502
lthumb 9.03301 22.622
rfemur -28.5517 -2.23863 18.3277
rtibia 69.6547
rfoot -18.8439 12.2041
rtoes -11.7722
lfemur -21.3133 -4.51849 -24.0676
ltibia 62.3384
lfoot -32.8756 -5.03702
ltoes -3.61994
144
root -20.3606 16.5349 -19.9972 -5.67207 43.8327 -719.942
lowerback 42.6526 0.703 -3.57174
upperback 11.099 -0.301408 -4.20372
thorax -7.76806 0.29191 -2.58097
lowerneck -5.64749 -1.79175 -8.11628
upperneck -4.53417 -1.83976 4.23825
head -0.338525 -0.783198 2.73735
rclavicle -2.14687e-014 1.00983e-013
rhumerus -29.0869 5.77474 -92.1714
rradius 44.6616
rwrist 2.82917
rhand -27.4318 23.0031
rfingers 7.12502
rthumb -0.837154 -6.97502
lclavicle -2.14687e-014 1.00983e-013
lhumerus -4.1721 21.8222 88.7731
lradius 30.5172
lwrist -19.7524
lhand -17.318 -7.1746
lfingers 7.12502
lthumb 8.92847 22.6165
rfemur -29.2599 -1.97656 18.5329
rtibia 68.6835
rfoot -19.0925 11.8326
rtoes -11.6257
lfemur -20.609 -4.28082 -24.1172
ltibia 62.1443
lfoot -33.0695 -5.21101
ltoes -3.57412
